<svg version="1.1" xmlns="http://www.w3.org/2000/svg" xmlns:xlink="http://www.w3.org/1999/xlink" width="512.000000pt" height="512.000000pt" viewBox="0,0,256,256"><g fill="#059d24" fill-rule="nonzero" stroke="none" stroke-width="1" stroke-linecap="butt" stroke-linejoin="miter" stroke-miterlimit="10" stroke-dasharray="" stroke-dashoffset="0" font-family="none" font-weight="none" font-size="none" text-anchor="none" style="mix-blend-mode: normal"><g transform="translate(0.02844,0.02012) scale(0.5,0.5)"><g transform="translate(0,512) scale(0.1,-0.1)"><path d="M3814,5104c-50,-24 -62,-63 -68,-209c-11,-294 -147,-658 -531,-1413c-222,-437 -242,-496 -254,-751l-6,-143l-61,93c-34,52 -89,131 -122,175c-55,74 -61,89 -77,170c-49,253 -173,527 -304,675c-42,48 -85,56 -121,24c-36,-32 -26,-72 41,-165c66,-91 127,-206 166,-309l24,-65l-78,75c-239,227 -472,389 -705,491c-124,53 -221,88 -247,88c-29,0 -71,-43 -71,-73c0,-41 30,-64 135,-103c202,-74 411,-195 605,-352c99,-81 306,-280 298,-287c-7,-8 -239,59 -398,113c-355,122 -610,237 -810,366c-36,24 -150,106 -255,184c-124,93 -226,161 -294,195l-103,52l53,12c221,50 508,79 699,69c243,-12 417,-54 607,-146c68,-33 129,-60 137,-60c7,0 25,9 40,21c34,27 36,79 4,109c-31,29 -206,113 -302,144c-334,110 -773,110 -1249,2c-131,-30 -155,-41 -185,-86c-46,-68 -13,-150 74,-184c126,-48 153,-61 209,-94c33,-19 143,-97 245,-173c102,-76 226,-163 275,-194c304,-192 958,-438 1343,-506l73,-12l48,-66c123,-167 261,-392 349,-567c22,-44 61,-143 87,-219c54,-160 114,-303 190,-454c46,-92 119,-296 139,-386l6,-30l-27,35c-139,174 -196,242 -281,332c-92,99 -103,115 -180,269c-143,288 -262,460 -441,640c-123,123 -229,201 -345,254c-96,44 -150,58 -366,95c-432,73 -787,155 -977,226c-108,39 -230,102 -274,139c-67,56 -143,53 -194,-6c-34,-41 -33,-94 5,-280c126,-622 405,-1056 804,-1249c145,-70 359,-126 578,-149c156,-17 201,-15 226,12c29,31 28,72 -3,102c-19,20 -34,25 -77,25c-121,0 -370,42 -513,87c-429,134 -715,519 -860,1158c-14,61 -25,120 -25,133v22l43,-27c186,-118 593,-230 1222,-338c116,-19 243,-47 284,-61c199,-69 402,-247 580,-509c39,-57 74,-111 77,-120c4,-9 -36,17 -88,58c-116,90 -185,132 -320,196c-186,89 -365,139 -717,201c-430,76 -560,121 -695,240c-75,67 -103,74 -141,35c-42,-41 -33,-71 38,-140c140,-137 311,-201 729,-275c358,-64 519,-105 686,-179c155,-68 266,-141 456,-300l78,-66l-63,-12c-242,-46 -455,-95 -468,-108c-24,-24 -19,-84 9,-107c31,-25 60,-22 312,32c199,43 312,51 371,27c56,-24 267,-259 420,-469c156,-215 265,-411 347,-628c103,-271 159,-394 185,-404c29,-11 52,-7 79,15c37,29 34,59 -22,191c-123,286 -224,595 -286,874c-54,239 -55,269 -19,346c41,85 87,134 287,308c279,241 446,416 446,469c0,35 -38,71 -75,71c-23,0 -51,-23 -157,-135c-71,-74 -191,-188 -266,-252c-75,-64 -173,-152 -218,-195l-81,-79l-6,53c-13,102 -7,470 8,578c29,202 95,428 188,640c25,58 107,230 181,384c217,444 273,603 283,807c8,149 -3,236 -32,265c-30,30 -75,31 -101,3c-17,-19 -19,-38 -19,-188c0,-252 -23,-322 -275,-841c-318,-653 -389,-905 -390,-1378l-1,-197l-28,65c-83,193 -158,451 -187,650c-22,152 -15,379 15,495c15,58 77,193 225,490c389,779 520,1130 538,1444l3,44l102,-114c214,-240 354,-441 466,-667c128,-258 176,-434 184,-677c6,-188 -8,-291 -63,-455c-31,-94 -141,-329 -225,-483c-31,-57 -31,-60 -16,-92c20,-41 65,-55 102,-31c48,31 219,372 284,563c16,49 37,123 46,164c22,98 31,360 16,469c-60,453 -321,931 -760,1392c-114,121 -154,138 -227,102z"></path></g></g></g></svg>