<svg width="47" height="62" viewBox="0 0 47 62" fill="none" xmlns="http://www.w3.org/2000/svg">
<path d="M13.3203 39.4766C12.6519 39.4766 12.1094 40.0191 12.1094 40.6875C12.1094 41.3559 12.6519 41.8984 13.3203 41.8984C13.9887 41.8984 14.5312 41.3559 14.5312 40.6875C14.5312 40.0191 13.9887 39.4766 13.3203 39.4766Z" fill="#00AA8A"/>
<path d="M42.3828 4.84375C41.0565 4.84375 30.1988 4.84375 28.9408 4.84375C28.3783 2.08354 25.9317 0 23.0078 0C20.0839 0 17.6373 2.08354 17.0748 4.84375C15.8168 4.84375 4.95915 4.84375 3.63281 4.84375C1.62968 4.84375 0 6.47343 0 8.47656V58.3672C0 60.3703 1.62968 62 3.63281 62H42.3828C44.3859 62 46.0156 60.3703 46.0156 58.3672V8.47656C46.0156 6.47343 44.3859 4.84375 42.3828 4.84375ZM14.5312 7.26562H18.1641C18.8327 7.26562 19.375 6.72337 19.375 6.05469C19.375 4.05155 21.0047 2.42188 23.0078 2.42188C25.0109 2.42188 26.6406 4.05155 26.6406 6.05469C26.6406 6.72337 27.1829 7.26562 27.8516 7.26562H31.4844V9.6875H14.5312V7.26562ZM38.75 12.1094V54.7344H7.26562V12.1094H38.75ZM43.5938 58.3672C43.5938 59.0349 43.0505 59.5781 42.3828 59.5781H3.63281C2.9651 59.5781 2.42188 59.0349 2.42188 58.3672V8.47656C2.42188 7.80885 2.9651 7.26562 3.63281 7.26562H12.1094V9.6875H6.05469C5.38601 9.6875 4.84375 10.2298 4.84375 10.8984V55.9453C4.84375 56.614 5.38601 57.1562 6.05469 57.1562H39.9609C40.6296 57.1562 41.1719 56.614 41.1719 55.9453V10.8984C41.1719 10.2298 40.6296 9.6875 39.9609 9.6875H33.9062V7.26562H42.3828C43.0505 7.26562 43.5938 7.80885 43.5938 8.47656V58.3672Z" fill="#00AA8A"/>
<path d="M32.6953 46.7422H13.3203C12.6516 46.7422 12.1094 47.2844 12.1094 47.9531C12.1094 48.6218 12.6516 49.1641 13.3203 49.1641H32.6953C33.364 49.1641 33.9062 48.6218 33.9062 47.9531C33.9062 47.2844 33.364 46.7422 32.6953 46.7422Z" fill="#00AA8A"/>
<path d="M32.6953 39.4766H18.1641C17.4954 39.4766 16.9531 40.0188 16.9531 40.6875C16.9531 41.3562 17.4954 41.8984 18.1641 41.8984H32.6953C33.364 41.8984 33.9062 41.3562 33.9062 40.6875C33.9062 40.0188 33.364 39.4766 32.6953 39.4766Z" fill="#00AA8A"/>
<path d="M23.0078 17.6797C18.3338 17.6797 14.5312 21.4823 14.5312 26.1562C14.5312 30.8302 18.3338 34.6328 23.0078 34.6328C27.6818 34.6328 31.4844 30.8302 31.4844 26.1562C31.4844 21.4823 27.6818 17.6797 23.0078 17.6797ZM23.0078 32.2109C19.6693 32.2109 16.9531 29.4948 16.9531 26.1562C16.9531 22.8177 19.6693 20.1016 23.0078 20.1016C26.3464 20.1016 29.0625 22.8177 29.0625 26.1562C29.0625 29.4948 26.3464 32.2109 23.0078 32.2109Z" fill="#00AA8A"/>
<path d="M25.4297 24.9453H24.2188V23.7344C24.2188 23.0657 23.6765 22.5234 23.0078 22.5234C22.3391 22.5234 21.7969 23.0657 21.7969 23.7344V24.9453H20.5859C19.9173 24.9453 19.375 25.4876 19.375 26.1562C19.375 26.8249 19.9173 27.3672 20.5859 27.3672H21.7969V28.5781C21.7969 29.2468 22.3391 29.7891 23.0078 29.7891C23.6765 29.7891 24.2188 29.2468 24.2188 28.5781V27.3672H25.4297C26.0984 27.3672 26.6406 26.8249 26.6406 26.1562C26.6406 25.4876 26.0984 24.9453 25.4297 24.9453Z" fill="#00AA8A"/>
</svg>
