<svg width="27" height="65" viewBox="0 0 27 65" fill="none" xmlns="http://www.w3.org/2000/svg">
<path d="M19.7 21H3C2.44772 21 2 21.4477 2 22V26.72C2 27.2723 2.44771 27.72 3 27.72H6.85C7.40229 27.72 7.85 28.1677 7.85 28.72V54.72C7.85 55.2723 7.40229 55.72 6.85 55.72H3C2.44772 55.72 2 56.1677 2 56.72V62C2 62.5523 2.44772 63 3 63H24.1C24.6523 63 25.1 62.5523 25.1 62V56.72C25.1 56.1677 24.6523 55.72 24.1 55.72H21.7C21.1477 55.72 20.7 55.2723 20.7 54.72V22C20.7 21.4477 20.2523 21 19.7 21Z" stroke="#00AA8A" stroke-width="2.25"/>
<circle cx="11.975" cy="7.875" r="6.75" stroke="#00AA8A" stroke-width="2.25"/>
</svg>
