<svg width="50" height="64" viewBox="0 0 50 64" fill="none" xmlns="http://www.w3.org/2000/svg">
<path d="M42.9762 7.08534V5C42.9762 2.79086 41.1853 1 38.9762 1H5C2.79086 1 1 2.79087 1 5V54.639C1 56.8481 2.79086 58.639 5 58.639H8.15922" stroke="#00AA8A" stroke-width="1.75"/>
<path d="M6.01144 8.87514H8.15921" stroke="#00AA8A" stroke-width="1.75"/>
<path d="M6.01144 13.8866H8.15921" stroke="#00AA8A" stroke-width="1.75"/>
<path d="M6.01144 18.1821H8.15921" stroke="#00AA8A" stroke-width="1.75"/>
<path d="M6.01144 22.4777H8.15921" stroke="#00AA8A" stroke-width="1.75"/>
<path d="M6.01144 48.2509H8.87513" stroke="#00AA8A" stroke-width="1.75"/>
<path d="M6.01144 50.3986H8.15921" stroke="#00AA8A" stroke-width="1.75"/>
<path d="M33.2165 7.08534V1H38.9439V7.08534H33.2165Z" stroke="#00AA8A" stroke-width="1.75"/>
<path d="M11.7023 7.23603H45.6785C47.4044 7.23603 48.8035 8.63514 48.8035 10.361V23.2768V60C48.8035 61.7259 47.4044 63.125 45.6785 63.125H11.7023C9.97644 63.125 8.57733 61.7259 8.57733 60V10.361C8.57733 8.63514 9.97644 7.23603 11.7023 7.23603Z" stroke="#00AA8A" stroke-width="1.75"/>
<path d="M12.7147 14.5071H32.763" stroke="#00AA8A" stroke-width="1.75"/>
<path d="M12.7147 18.8922H32.763" stroke="#00AA8A" stroke-width="1.75"/>
<path d="M12.7147 23.2772H32.763" stroke="#00AA8A" stroke-width="1.75"/>
<path d="M12.7147 27.6622H32.763" stroke="#00AA8A" stroke-width="1.75"/>
<path d="M12.7147 53.3487H25.2449" stroke="#00AA8A" stroke-width="1.75"/>
<path d="M12.7147 55.8572H16.4737" stroke="#00AA8A" stroke-width="1.75"/>
<path d="M17.1004 55.8572H20.8595" stroke="#00AA8A" stroke-width="1.75"/>
<path d="M21.4861 55.8572H25.2452" stroke="#00AA8A" stroke-width="1.75"/>
<path d="M39.66 16.75V7.443H45.3873V16.75L42.5237 13.7887L39.66 16.75Z" stroke="#00AA8A" stroke-width="1.75"/>
</svg>
