<svg width="77" height="88" viewBox="0 0 77 88" fill="none" xmlns="http://www.w3.org/2000/svg">
<path d="M42.5071 72.6151L42.7591 73.047L42.5071 72.6151C42.2817 72.7467 42.0944 72.9348 41.9639 73.1608L41.1405 74.587C41.0024 74.8261 40.6966 74.9081 40.4575 74.77L40.3444 74.7047C40.1053 74.5666 40.0233 74.2608 40.1614 74.0217L40.9848 72.5956C41.1153 72.3695 41.1846 72.1133 41.1857 71.8522L41.2216 63.7949C41.222 63.7079 41.2451 63.6225 41.2886 63.5472L59.9725 31.1858C60.3867 30.4683 60.1409 29.5509 59.4234 29.1367L59.3104 29.0714C58.5929 28.6572 57.6755 28.903 57.2613 29.6205L52.4023 38.0365C52.2643 38.2757 51.9585 38.3576 51.7193 38.2195L51.6063 38.1543C51.3671 38.0162 51.2852 37.7104 51.4233 37.4712L57.3475 27.2101C57.4856 26.971 57.7914 26.889 58.0305 27.0271L59.9887 28.1576C60.7061 28.5718 61.6235 28.326 62.0377 27.6086L64.2336 23.8053C64.3716 23.5662 64.6774 23.4842 64.9166 23.6223L65.0296 23.6876C65.7471 24.1018 66.6645 23.856 67.0787 23.1385L69.2745 19.3353C69.4126 19.0961 69.7184 19.0142 69.9575 19.1523L73.7608 21.3481C73.9999 21.4862 74.0819 21.792 73.9438 22.0311L71.748 25.8344C71.3337 26.5518 71.5796 27.4692 72.297 27.8834L72.4101 27.9487C72.6492 28.0868 72.7311 28.3925 72.5931 28.6317L49.6481 68.3735C49.6046 68.4489 49.5422 68.5116 49.467 68.5554L42.5071 72.6151ZM71.2373 21.1966C70.5199 20.7824 69.6025 21.0282 69.1883 21.7457L68.0577 23.7038C67.6435 24.4213 67.8893 25.3386 68.6068 25.7529L68.7198 25.8181C69.4373 26.2323 70.3547 25.9865 70.7689 25.2691L71.8994 23.3109C72.3136 22.5935 72.0678 21.6761 71.3504 21.2619L71.2373 21.1966ZM42.3302 68.7919C42.3252 69.9521 43.5829 70.6785 44.5853 70.0944L46.8696 68.7634C47.865 68.1834 47.8622 66.7444 46.8645 66.1683L44.5915 64.856C43.5939 64.2801 42.3464 64.9968 42.3415 66.1487L42.3302 68.7919ZM48.1942 65.6306C48.9117 66.0449 49.829 65.799 50.2433 65.0816L50.3085 64.9685C50.7227 64.2511 50.4769 63.3337 49.7595 62.9195L45.9562 60.7237C45.2388 60.3095 44.3214 60.5553 43.9072 61.2727L43.8419 61.3858C43.4277 62.1032 43.6735 63.0206 44.391 63.4348L48.1942 65.6306ZM50.3248 61.9404C51.0422 62.3546 51.9596 62.1088 52.3738 61.3914L52.4391 61.2783C52.8533 60.5609 52.6075 59.6435 51.89 59.2293L48.0868 57.0335C47.3693 56.6193 46.4519 56.8651 46.0377 57.5825L45.9725 57.6956C45.5582 58.413 45.8041 59.3304 46.5215 59.7446L50.3248 61.9404ZM52.4553 58.2502C53.1728 58.6644 54.0901 58.4186 54.5044 57.7012L54.5696 57.5881C54.9838 56.8707 54.738 55.9533 54.0206 55.5391L50.2173 53.3433C49.4999 52.9291 48.5825 53.1749 48.1683 53.8923L48.103 54.0054C47.6888 54.7228 47.9346 55.6402 48.652 56.0544L52.4553 58.2502ZM54.5859 54.56C55.3033 54.9742 56.2207 54.7284 56.6349 54.011L56.7002 53.8979C57.1144 53.1805 56.8686 52.2631 56.1511 51.8489L52.3479 49.6531C51.6304 49.2388 50.713 49.4847 50.2988 50.2021L50.2336 50.3151C49.8193 51.0326 50.0652 51.95 50.7826 52.3642L54.5859 54.56ZM56.7164 50.8698C57.4338 51.284 58.3512 51.0382 58.7654 50.3208L67.3529 35.4468C67.7671 34.7294 67.5213 33.812 66.8039 33.3978L63.0006 31.202C62.2832 30.7878 61.3658 31.0336 60.9516 31.751L52.3641 46.6249C51.9499 47.3424 52.1957 48.2598 52.9131 48.674L56.7164 50.8698ZM67.3691 32.4187C68.0866 32.8329 69.004 32.5871 69.4182 31.8697L70.5487 29.9115C70.9629 29.1941 70.7171 28.2767 69.9997 27.8625L66.1964 25.6667C65.479 25.2525 64.5616 25.4983 64.1474 26.2157L63.0168 28.1739C62.6026 28.8913 62.8484 29.8087 63.5659 30.2229L67.3691 32.4187Z" fill="#00AA8A" stroke="#00AA8A"/>
<path d="M63.6304 26.2391V5C63.6304 2.79086 61.8396 1 59.6304 1H5C2.79086 1 1 2.79086 1 5V83C1 85.2091 2.79086 87 5 87H59.6304C61.8396 87 63.6304 85.2091 63.6304 83V43.3058" stroke="#00AA8A" stroke-width="2"/>
<path d="M8.47826 13.1521H38.3913" stroke="#00AA8A" stroke-width="2"/>
<path d="M8.47826 19.6956H38.3913" stroke="#00AA8A" stroke-width="2"/>
<path d="M8.47826 26.239H38.3913" stroke="#00AA8A" stroke-width="2"/>
<path d="M8.47803 32.7812H38.3911" stroke="#00AA8A" stroke-width="2"/>
<path d="M8.47826 71.1086H27.1739" stroke="#00AA8A" stroke-width="2"/>
<path d="M8.47826 74.8479H14.087" stroke="#00AA8A" stroke-width="2"/>
<path d="M15.0217 74.8479H20.6304" stroke="#00AA8A" stroke-width="2"/>
<path d="M21.5652 74.8479H27.1739" stroke="#00AA8A" stroke-width="2"/>
<path d="M48.6739 15.0217V1H57.087V15.0217L52.8804 10.5603L48.6739 15.0217Z" stroke="#00AA8A" stroke-width="2"/>
</svg>
