<svg width="63" height="63" viewBox="0 0 63 63" fill="none" xmlns="http://www.w3.org/2000/svg">
<path d="M54.3867 26.5781C53.7076 26.5781 53.1562 27.1294 53.1562 27.8086C53.1562 28.4878 53.7076 29.0391 54.3867 29.0391C55.0659 29.0391 55.6172 28.4878 55.6172 27.8086C55.6172 27.1294 55.0659 26.5781 54.3867 26.5781Z" fill="#00AA8A"/>
<path d="M33.9609 14.2734C34.6401 14.2734 35.1914 13.7221 35.1914 13.043C35.1914 12.3638 34.6401 11.8125 33.9609 11.8125C33.2818 11.8125 32.7305 12.3638 32.7305 13.043C32.7305 13.7221 33.2818 14.2734 33.9609 14.2734Z" fill="#00AA8A"/>
<path d="M59.3086 19.1953H42.5742V8.12109C42.5742 6.08553 40.9184 4.42969 38.8828 4.42969H3.69141C1.65585 4.42969 0 6.08553 0 8.12109V32.7305C0 34.766 1.65585 36.4219 3.69141 36.4219H7.38281V42.5742C7.38281 43.6764 8.7147 44.2128 9.48326 43.4442L16.5056 36.4219H20.4258V47.4961C20.4258 49.5317 22.0816 51.1875 24.1172 51.1875H46.4944L53.5167 58.2098C54.2863 58.9793 55.6172 58.4396 55.6172 57.3398V51.1875H59.3086C61.3442 51.1875 63 49.5317 63 47.4961V22.8867C63 20.8512 61.3442 19.1953 59.3086 19.1953ZM8.61328 21.6548H20.6373C20.5008 22.0403 20.4258 22.4541 20.4258 22.8853V26.5781H8.61328C7.93364 26.5781 7.38281 27.129 7.38281 27.8086C7.38281 28.4882 7.93364 29.0391 8.61328 29.0391H20.4258V33.9609H15.9961C15.6697 33.9609 15.3568 34.0907 15.1261 34.3214L9.84375 39.6033V35.1914C9.84375 34.5118 9.29292 33.9609 8.61328 33.9609H3.69141C3.01273 33.9609 2.46094 33.4091 2.46094 32.7305V8.12109C2.46094 7.44241 3.01273 6.89062 3.69141 6.89062H38.8828C39.5615 6.89062 40.1133 7.44241 40.1133 8.12109V19.1953C38.382 19.1953 10.347 19.1953 8.61328 19.1953C7.93364 19.1953 7.38281 19.7461 7.38281 20.4258C7.38281 21.1054 7.93364 21.6548 8.61328 21.6548ZM60.5391 47.4961C60.5391 48.1748 59.9873 48.7266 59.3086 48.7266H54.3867C53.7071 48.7266 53.1562 49.2774 53.1562 49.957V54.3689L47.8739 49.0871C47.6432 48.8563 47.3303 48.7266 47.0039 48.7266H24.1172C23.4385 48.7266 22.8867 48.1743 22.8867 47.4961V22.8867C22.8867 22.208 23.4385 21.6562 24.1172 21.6562H59.3086C59.9873 21.6562 60.5391 22.208 60.5391 22.8867V47.4961Z" fill="#00AA8A"/>
<path d="M8.61328 14.2734H29.0391C29.7187 14.2734 30.2695 13.7226 30.2695 13.043C30.2695 12.3633 29.7187 11.8125 29.0391 11.8125H8.61328C7.93364 11.8125 7.38281 12.3633 7.38281 13.043C7.38281 13.7226 7.93364 14.2734 8.61328 14.2734Z" fill="#00AA8A"/>
<path d="M29.0391 29.0391H49.4648C50.1445 29.0391 50.6953 28.4882 50.6953 27.8086C50.6953 27.129 50.1445 26.5781 49.4648 26.5781H29.0391C28.3594 26.5781 27.8086 27.129 27.8086 27.8086C27.8086 28.4882 28.3594 29.0391 29.0391 29.0391Z" fill="#00AA8A"/>
<path d="M54.3867 33.9609H29.0391C28.3594 33.9609 27.8086 34.5118 27.8086 35.1914C27.8086 35.871 28.3594 36.4219 29.0391 36.4219H54.3867C55.0664 36.4219 55.6172 35.871 55.6172 35.1914C55.6172 34.5118 55.0664 33.9609 54.3867 33.9609Z" fill="#00AA8A"/>
<path d="M54.3867 41.3438H29.0391C28.3594 41.3438 27.8086 41.8946 27.8086 42.5742C27.8086 43.2539 28.3594 43.8047 29.0391 43.8047H54.3867C55.0664 43.8047 55.6172 43.2539 55.6172 42.5742C55.6172 41.8946 55.0664 41.3438 54.3867 41.3438Z" fill="#00AA8A"/>
</svg>
