<svg width="63" height="63" viewBox="0 0 63 63" fill="none" xmlns="http://www.w3.org/2000/svg">
<path d="M46.5972 4.88792C46.0921 2.41245 43.8991 0.543091 41.2759 0.543091C40.6763 0.543091 40.1897 1.02863 40.1897 1.6293C40.1897 2.22997 40.6763 2.7155 41.2759 2.7155C43.0724 2.7155 44.5345 4.17754 44.5345 5.97413C44.5345 7.77071 43.0724 9.23275 41.2759 9.23275C40.6763 9.23275 40.1897 9.71828 40.1897 10.319C40.1897 10.9196 40.6763 11.4052 41.2759 11.4052C43.898 11.4052 46.0921 9.5358 46.5972 7.06033H60.8276V16.8362H2.17241V7.06033H17.3793H20.6379C21.2375 7.06033 21.7241 6.5748 21.7241 5.97413C21.7241 5.37345 21.2375 4.88792 20.6379 4.88792H18.6654C19.1151 3.62575 20.3099 2.7155 21.7241 2.7155C23.5207 2.7155 24.9828 4.17754 24.9828 5.97413C24.9828 7.77071 23.5207 9.23275 21.7241 9.23275C21.1246 9.23275 20.6379 9.71828 20.6379 10.319C20.6379 10.9196 21.1246 11.4052 21.7241 11.4052C24.7188 11.4052 27.1552 8.9688 27.1552 5.97413C27.1552 2.97945 24.7188 0.543091 21.7241 0.543091C19.102 0.543091 16.9079 2.41245 16.4028 4.88792H3C1.34315 4.88792 0 6.23106 0 7.88792V19.0086V59.4569C0 61.1137 1.34315 62.4569 3 62.4569H60C61.6569 62.4569 63 61.1137 63 59.4569V19.0086V7.88792C63 6.23106 61.6569 4.88792 60 4.88792H46.5972ZM60.8276 60.2845H2.17241V19.0086H60.8276V60.2845Z" fill="#00AA8A"/>
<path d="M28.2414 2.7155C30.038 2.7155 31.5 4.17754 31.5 5.97413C31.5 7.77071 30.038 9.23275 28.2414 9.23275C27.6418 9.23275 27.1552 9.71828 27.1552 10.319C27.1552 10.9196 27.6418 11.4052 28.2414 11.4052C31.2361 11.4052 33.6724 8.9688 33.6724 5.97413C33.6724 2.97945 31.2361 0.543091 28.2414 0.543091C27.6418 0.543091 27.1552 1.02863 27.1552 1.6293C27.1552 2.22997 27.6418 2.7155 28.2414 2.7155Z" fill="#00AA8A"/>
<path d="M34.7586 2.7155C36.5552 2.7155 38.0172 4.17754 38.0172 5.97413C38.0172 7.77071 36.5552 9.23275 34.7586 9.23275C34.159 9.23275 33.6724 9.71828 33.6724 10.319C33.6724 10.9196 34.159 11.4052 34.7586 11.4052C37.7533 11.4052 40.1897 8.9688 40.1897 5.97413C40.1897 2.97945 37.7533 0.543091 34.7586 0.543091C34.159 0.543091 33.6724 1.02863 33.6724 1.6293C33.6724 2.22997 34.159 2.7155 34.7586 2.7155Z" fill="#00AA8A"/>
<path d="M9.77586 27.6983H33.6724C34.272 27.6983 34.7586 27.2127 34.7586 26.6121C34.7586 26.0114 34.272 25.5258 33.6724 25.5258H9.77586C9.17628 25.5258 8.68966 26.0114 8.68966 26.6121C8.68966 27.2127 9.17628 27.6983 9.77586 27.6983Z" fill="#00AA8A"/>
<path d="M53.2241 42.9052H36.931C36.3314 42.9052 35.8448 43.3907 35.8448 43.9914C35.8448 44.592 36.3314 45.0776 36.931 45.0776H53.2241C53.8237 45.0776 54.3103 44.592 54.3103 43.9914C54.3103 43.3907 53.8237 42.9052 53.2241 42.9052Z" fill="#00AA8A"/>
<path d="M9.77586 36.3879H20.6379C21.2375 36.3879 21.7241 35.9024 21.7241 35.3017C21.7241 34.701 21.2375 34.2155 20.6379 34.2155H9.77586C9.17628 34.2155 8.68966 34.701 8.68966 35.3017C8.68966 35.9024 9.17628 36.3879 9.77586 36.3879Z" fill="#00AA8A"/>
<path d="M53.2241 51.5948H42.3621C41.7625 51.5948 41.2759 52.0804 41.2759 52.681C41.2759 53.2817 41.7625 53.7672 42.3621 53.7672H53.2241C53.8237 53.7672 54.3103 53.2817 54.3103 52.681C54.3103 52.0804 53.8237 51.5948 53.2241 51.5948Z" fill="#00AA8A"/>
<path d="M30.4138 35.3017C30.4138 35.9024 30.9004 36.3879 31.5 36.3879H47.7931C48.3927 36.3879 48.8793 35.9024 48.8793 35.3017C48.8793 34.701 48.3927 34.2155 47.7931 34.2155H31.5C30.9004 34.2155 30.4138 34.701 30.4138 35.3017Z" fill="#00AA8A"/>
<path d="M26.8402 36.0729C27.0357 35.8665 27.1552 35.5841 27.1552 35.3016C27.1552 35.0181 27.0357 34.7357 26.8402 34.5304C26.4383 34.1285 25.6997 34.1285 25.2978 34.5304C25.1022 34.7357 24.9828 35.0181 24.9828 35.3016C24.9828 35.5841 25.1022 35.8665 25.2978 36.0729C25.5041 36.2781 25.7866 36.3879 26.069 36.3879C26.3514 36.3879 26.6338 36.2781 26.8402 36.0729Z" fill="#00AA8A"/>
<path d="M14.1207 43.9914C14.1207 44.592 14.6073 45.0776 15.2069 45.0776H31.5C32.0996 45.0776 32.5862 44.592 32.5862 43.9914C32.5862 43.3907 32.0996 42.9052 31.5 42.9052H15.2069C14.6073 42.9052 14.1207 43.3907 14.1207 43.9914Z" fill="#00AA8A"/>
<path d="M9.77586 45.0777C10.0583 45.0777 10.3407 44.9583 10.5471 44.7627C10.7426 44.5564 10.8621 44.2739 10.8621 43.9915C10.8621 43.708 10.7426 43.4256 10.5471 43.2312C10.1452 42.8184 9.40655 42.8184 9.00466 43.2203C8.80914 43.4256 8.68966 43.708 8.68966 43.9915C8.68966 44.2739 8.80914 44.5564 9.00466 44.7627C9.21103 44.9583 9.48259 45.0777 9.77586 45.0777Z" fill="#00AA8A"/>
<path d="M53.2241 36.3879C53.5066 36.3879 53.789 36.2781 53.9953 36.0729C54.2017 35.8665 54.3103 35.5841 54.3103 35.3016C54.3103 35.0181 54.2017 34.7357 53.9953 34.5304C53.5826 34.1285 52.8548 34.1285 52.4529 34.5304C52.2574 34.7357 52.1379 35.0181 52.1379 35.3016C52.1379 35.5841 52.2574 35.8665 52.4529 36.0729C52.6593 36.2781 52.9417 36.3879 53.2241 36.3879Z" fill="#00AA8A"/>
<path d="M36.931 51.5948H9.77586C9.17628 51.5948 8.68966 52.0804 8.68966 52.681C8.68966 53.2817 9.17628 53.7672 9.77586 53.7672H36.931C37.5306 53.7672 38.0172 53.2817 38.0172 52.681C38.0172 52.0804 37.5306 51.5948 36.931 51.5948Z" fill="#00AA8A"/>
</svg>
