<svg width="50" height="40" viewBox="0 0 50 40" fill="none" xmlns="http://www.w3.org/2000/svg">
<path d="M5.43555 29.0059H8.26562C9.51432 29.0059 10.4531 29.1927 11.082 29.5664C11.7109 29.9401 12.0254 30.5758 12.0254 31.4736C12.0254 31.861 11.9502 32.2096 11.7998 32.5195C11.654 32.8249 11.4398 33.0778 11.1572 33.2783C10.8747 33.4788 10.526 33.6178 10.1113 33.6953V33.7637C10.5488 33.832 10.9362 33.9574 11.2734 34.1396C11.6107 34.3219 11.875 34.5771 12.0664 34.9053C12.2578 35.2334 12.3535 35.6504 12.3535 36.1562C12.3535 36.7715 12.21 37.291 11.9229 37.7148C11.6403 38.1387 11.2393 38.46 10.7197 38.6787C10.2002 38.8929 9.58496 39 8.87402 39H5.43555V29.0059ZM6.59766 33.292H8.51172C9.38216 33.292 9.98372 33.1484 10.3164 32.8613C10.6536 32.5742 10.8223 32.1549 10.8223 31.6035C10.8223 31.0339 10.6217 30.6237 10.2207 30.373C9.82422 30.1224 9.19076 29.9971 8.32031 29.9971H6.59766V33.292ZM6.59766 34.2695V38.0088H8.67578C9.56445 38.0088 10.1934 37.8356 10.5625 37.4893C10.9316 37.1383 11.1162 36.6667 11.1162 36.0742C11.1162 35.696 11.0319 35.3724 10.8633 35.1035C10.6992 34.8346 10.4303 34.6296 10.0566 34.4883C9.6875 34.3424 9.19303 34.2695 8.57324 34.2695H6.59766ZM20.7754 35.2402C20.7754 35.8555 20.6956 36.4046 20.5361 36.8877C20.3766 37.3708 20.1465 37.7786 19.8457 38.1113C19.5449 38.444 19.1803 38.6992 18.752 38.877C18.3281 39.0501 17.8473 39.1367 17.3096 39.1367C16.8083 39.1367 16.348 39.0501 15.9287 38.877C15.514 38.6992 15.154 38.444 14.8486 38.1113C14.5479 37.7786 14.3132 37.3708 14.1445 36.8877C13.9805 36.4046 13.8984 35.8555 13.8984 35.2402C13.8984 34.4199 14.0374 33.7227 14.3154 33.1484C14.5934 32.5697 14.9899 32.1299 15.5049 31.8291C16.0244 31.5238 16.6419 31.3711 17.3574 31.3711C18.041 31.3711 18.638 31.5238 19.1484 31.8291C19.6634 32.1344 20.0622 32.5765 20.3447 33.1553C20.6318 33.7295 20.7754 34.4245 20.7754 35.2402ZM15.0742 35.2402C15.0742 35.8418 15.154 36.3636 15.3135 36.8057C15.473 37.2477 15.7191 37.5895 16.0518 37.8311C16.3844 38.0726 16.8128 38.1934 17.3369 38.1934C17.8564 38.1934 18.2826 38.0726 18.6152 37.8311C18.9525 37.5895 19.2008 37.2477 19.3604 36.8057C19.5199 36.3636 19.5996 35.8418 19.5996 35.2402C19.5996 34.6432 19.5199 34.1283 19.3604 33.6953C19.2008 33.2578 18.9548 32.9206 18.6221 32.6836C18.2894 32.4466 17.8587 32.3281 17.3301 32.3281C16.5508 32.3281 15.9788 32.5856 15.6143 33.1006C15.2542 33.6156 15.0742 34.3288 15.0742 35.2402ZM23.8174 31.5078V36.2178C23.8174 36.3089 23.8151 36.4274 23.8105 36.5732C23.806 36.7145 23.7992 36.8672 23.79 37.0312C23.7809 37.1908 23.7718 37.3457 23.7627 37.4961C23.7581 37.6419 23.7513 37.7627 23.7422 37.8584L27.8301 31.5078H29.2246V39H28.165V34.4062C28.165 34.2604 28.1673 34.0736 28.1719 33.8457C28.1764 33.6178 28.1833 33.3945 28.1924 33.1758C28.2015 32.9525 28.2083 32.7793 28.2129 32.6562L24.1387 39H22.7373V31.5078H23.8174ZM28.6641 28.4248C28.623 28.8851 28.5068 29.2702 28.3154 29.5801C28.1286 29.89 27.8529 30.1247 27.4883 30.2842C27.1237 30.4391 26.6566 30.5166 26.0869 30.5166C25.499 30.5166 25.0251 30.4414 24.665 30.291C24.3096 30.1361 24.0452 29.9036 23.8721 29.5938C23.7035 29.2839 23.6032 28.8942 23.5713 28.4248H24.6377C24.6878 28.9261 24.8223 29.2679 25.041 29.4502C25.2598 29.6325 25.6152 29.7236 26.1074 29.7236C26.5449 29.7236 26.889 29.6279 27.1396 29.4365C27.3903 29.2451 27.5407 28.9079 27.5908 28.4248H28.6641ZM36.7441 32.4717H34.2764V39H33.1553V32.4717H30.7217V31.5078H36.7441V32.4717ZM39.3076 31.5078V36.2178C39.3076 36.3089 39.3053 36.4274 39.3008 36.5732C39.2962 36.7145 39.2894 36.8672 39.2803 37.0312C39.2712 37.1908 39.262 37.3457 39.2529 37.4961C39.2484 37.6419 39.2415 37.7627 39.2324 37.8584L43.3203 31.5078H44.7148V39H43.6553V34.4062C43.6553 34.2604 43.6576 34.0736 43.6621 33.8457C43.6667 33.6178 43.6735 33.3945 43.6826 33.1758C43.6917 32.9525 43.6986 32.7793 43.7031 32.6562L39.6289 39H38.2275V31.5078H39.3076Z" fill="#6D7988"/>
<path d="M24.1478 22.9859H16.5369C16.0701 22.9859 15.6913 22.5349 15.6913 21.9792V3.8581C15.6913 3.30238 16.0702 2.85139 16.5369 2.85139H24.1478C24.6155 2.85139 24.9934 2.4014 24.9934 1.84469C24.9934 1.28798 24.6155 0.837891 24.1478 0.837891H16.5369C15.1382 0.837891 14 2.19298 14 3.8581V21.9792C14 23.6443 15.1382 24.9993 16.5369 24.9993H24.1478C24.6155 24.9993 24.9934 24.5493 24.9934 23.9926C24.9934 23.4359 24.6155 22.9859 24.1478 22.9859Z" fill="#6D7988"/>
<path d="M20.2054 12.2023L25.3469 6.1619C25.6784 5.77128 26.2146 5.77635 26.5427 6.17199C26.8708 6.56762 26.8674 7.20487 26.5342 7.59549L22.8599 11.9123H32.7057C33.1734 11.9123 33.5514 12.3623 33.5514 12.919C33.5514 13.4757 33.1734 13.9258 32.7057 13.9258H22.8599L26.5342 18.2426C26.8673 18.6332 26.8699 19.2705 26.5427 19.6661C26.3769 19.8654 26.1588 19.9661 25.9406 19.9661C25.7258 19.9661 25.511 19.8695 25.3469 19.6761L20.2054 13.6358C20.0447 13.4465 19.9534 13.1888 19.9534 12.919C19.9534 12.6493 20.0438 12.3926 20.2054 12.2023Z" fill="#6D7988"/>
</svg>
