<svg width="31" height="18" viewBox="0 0 31 18" fill="none" xmlns="http://www.w3.org/2000/svg">
                    <path fill-rule="evenodd" clip-rule="evenodd" d="M0 8.61456C0.250641 7.94447 0.67175 7.35136 1.22173 6.89381C3.09838 4.94112 5.26293 3.28724 7.64013 1.98967C9.41609 1.02588 11.3514 0.390494 13.353 0.11405C15.5553 -0.163085 17.7918 0.0664491 19.8919 0.785143C22.0279 1.53427 24.0273 2.62697 25.8113 4.02016C27.1862 5.04283 28.4597 6.19529 29.6141 7.46166C29.8298 7.65062 30.0026 7.88346 30.121 8.14461C30.2394 8.40576 30.3006 8.68919 30.3006 8.97592C30.3006 9.26265 30.2394 9.54608 30.121 9.80723C30.0026 10.0684 29.8298 10.3012 29.6141 10.4902C27.0672 13.3625 23.8856 15.6013 20.3221 17.029C18.0358 17.9198 15.558 18.2044 13.1293 17.855C11.0275 17.5385 9.00951 16.8074 7.19274 15.7041C4.90725 14.3968 2.82111 12.7684 0.998035 10.8687C0.534019 10.4431 0.189868 9.90319 0 9.30286L0 8.61456ZM14.764 16.1514C16.5267 16.193 18.2804 15.889 19.9263 15.2567C23.1345 13.9154 26.0032 11.8756 28.3236 9.28565C28.5989 8.99313 28.5989 8.97592 28.3236 8.68339C27.0739 7.26691 25.6519 6.01248 24.0905 4.94936C21.9758 3.41203 19.5299 2.3924 16.9494 1.97246C14.8299 1.67003 12.6683 1.91284 10.6687 2.67797C8.32078 3.57867 6.14857 4.88316 4.25025 6.53245C3.47592 7.23796 2.77041 7.99509 2.01328 8.73501C1.8412 8.90709 1.80679 9.04475 2.01328 9.21682C2.21977 9.3889 2.44347 9.71584 2.66716 9.93954C4.42622 11.7485 6.45854 13.2698 8.68979 14.4479C10.5484 15.4953 12.6319 16.0796 14.764 16.1514Z" fill="#6B7786"></path>
                    <path fill-rule="evenodd" clip-rule="evenodd" d="M20.9763 8.99313C20.9763 10.1415 20.6353 11.264 19.9965 12.2184C19.3578 13.1728 18.4501 13.916 17.3885 14.3539C16.3269 14.7917 15.1591 14.9045 14.0333 14.678C12.9075 14.4514 11.8743 13.8957 11.0647 13.0813C10.2551 12.2668 9.70553 11.2303 9.48568 10.1032C9.26583 8.97606 9.38559 7.80902 9.82978 6.75002C10.274 5.69103 11.0226 4.78776 11.9807 4.15472C12.9389 3.52168 14.0634 3.18738 15.2118 3.1942C15.973 3.18957 16.7275 3.33666 17.4312 3.62687C18.1349 3.91709 18.7738 4.34461 19.3104 4.88448C19.8471 5.42434 20.2708 6.06572 20.5568 6.77116C20.8428 7.4766 20.9854 8.23196 20.9763 8.99313ZM15.2118 5.0354C14.4242 5.02858 13.6523 5.2559 12.9941 5.6885C12.3359 6.12111 11.8211 6.7395 11.515 7.4652C11.2088 8.19089 11.1252 8.99118 11.2746 9.7645C11.4241 10.5378 11.7999 11.2493 12.3545 11.8086C12.909 12.368 13.6171 12.75 14.3891 12.9062C15.1611 13.0624 15.9621 12.9857 16.6904 12.6859C17.4188 12.3861 18.0416 11.8766 18.4799 11.2222C18.9182 10.5678 19.1523 9.79796 19.1523 9.01034C19.1479 7.96342 18.7324 6.96014 17.9953 6.21664C17.2582 5.47314 16.2586 5.04893 15.2118 5.0354Z" fill="#6B7786"></path>
                </svg>