<svg width="45" height="63" viewBox="0 0 45 63" fill="none" xmlns="http://www.w3.org/2000/svg">
<path d="M36.1629 35.1738C36.4978 34.2561 36.6962 33.3508 36.6962 32.5075C36.6962 27.8197 33.0501 24 28.5732 24C26.2293 24 24.0094 25.0789 22.4716 26.8896C20.9462 25.0789 18.7139 24 16.37 24C11.893 24 8.24698 27.8197 8.24698 32.5075C8.24698 33.3508 8.44541 34.2561 8.79265 35.1862H5.2334V37.2077H9.77237C13.2076 43.5325 22.4716 50.6882 22.4716 50.6882C22.4716 50.6882 31.8596 43.5077 35.2204 37.2077H39.7842V35.1738H36.1629ZM22.4716 48.0963C19.7184 45.8268 14.795 41.3002 12.1287 37.2077H14.6338L17.5482 33.0407L21.8887 41.0646L25.1875 36.9969L27.3082 40.9157L31.0163 37.2077H32.8517C30.1978 41.3374 25.2495 45.8516 22.4716 48.0963ZM33.9803 35.1738H30.1854L27.8043 37.5549L25.5348 33.3508L22.236 37.4185L17.7714 29.1839L13.5797 35.1738H10.9877C10.5413 34.2189 10.2808 33.3012 10.2808 32.4951C10.2808 28.9234 13.0216 26.0215 16.3824 26.0215C18.5279 26.0215 20.4749 27.1872 21.5911 29.1591L22.4716 30.7093L23.3521 29.1591C24.4682 27.1996 26.4153 26.0215 28.5608 26.0215C31.9216 26.0215 34.6623 28.9234 34.6623 32.4951C34.6623 33.3136 34.4019 34.2189 33.9803 35.1738Z" fill="#E31E24"/>
<path d="M39.6354 8.12352H33.6579L32.9758 6.75935C32.4549 5.71761 31.4132 5.07273 30.2474 5.07273H29.1685C28.288 2.09635 25.5472 0.000488281 22.36 0.000488281C19.1728 0.000488281 16.4321 2.09635 15.5516 5.08513H14.4726C13.3069 5.08513 12.2652 5.73002 11.7443 6.77175L11.0622 8.13592H5.08465C2.28189 8.13592 0 10.4178 0 13.2206V57.9158C0 60.7186 2.28189 63.0005 5.08465 63.0005H39.6354C42.4382 63.0005 44.7201 60.7186 44.7201 57.9158V13.2082C44.7201 10.4054 42.4382 8.12352 39.6354 8.12352ZM12.29 10.2318L13.5673 7.67706C13.7409 7.32982 14.0882 7.11899 14.4726 7.11899H17.2134L17.3622 6.27568C17.7715 3.82017 19.8797 2.04675 22.36 2.04675C24.8404 2.04675 26.9486 3.83257 27.3579 6.27568L27.5067 7.11899H30.2474C30.6319 7.11899 30.9791 7.32982 31.1528 7.67706L32.4301 10.2318C32.6161 10.5418 32.4673 11.1371 31.8472 11.1867H12.8728C12.538 11.2115 12.0295 10.8147 12.29 10.2318ZM39.6354 60.9666H5.08465C3.39803 60.9666 2.03386 59.6025 2.03386 57.9158V13.2082C2.03386 11.5216 3.39803 10.1574 5.08465 10.1574H10.2189C10.1321 10.7651 10.2437 11.3851 10.5785 11.9308C11.0746 12.7245 11.9303 13.2082 12.8604 13.2082H31.8348C32.7774 13.2082 33.6331 12.7369 34.1167 11.9308C34.4516 11.3851 34.5632 10.7651 34.4764 10.1574H39.6106C41.2972 10.1574 42.6614 11.5216 42.6614 13.2082V57.9158H42.6862C42.6862 59.6025 41.322 60.9666 39.6354 60.9666Z" fill="#E31E24"/>
</svg>
