<svg width="61" height="85" viewBox="0 0 61 85" fill="none" xmlns="http://www.w3.org/2000/svg">
<path d="M57.4475 9.47373C57.7236 8.99543 57.5597 8.38384 57.0815 8.1077L51.359 4.80385C50.8807 4.52771 50.2691 4.69158 49.993 5.16988L46.1891 11.7583L44.5703 10.8237C44.092 10.5476 43.4805 10.7115 43.2043 11.1897L39.4005 17.7782L35.2968 15.409C34.8185 15.1328 34.2069 15.2967 33.9308 15.775L25.6058 30.1943C25.3297 30.6726 25.4935 31.2842 25.9718 31.5604L26.7246 31.995C27.2029 32.2711 27.8145 32.1072 28.0906 31.629L35.481 18.8284L37.9658 20.263L12.0846 65.0906C11.9976 65.2413 11.9514 65.4121 11.9507 65.5861L11.9015 76.6212C11.9008 76.7952 11.8546 76.966 11.7676 77.1167L10.4393 79.4173C10.1632 79.8956 10.3271 80.5072 10.8053 80.7833L11.5581 81.218C12.0364 81.4941 12.648 81.3302 12.9241 80.8519L14.2524 78.5513C14.3394 78.4006 14.4643 78.2752 14.6146 78.1875L24.1466 72.6275C24.2969 72.5398 24.4218 72.4144 24.5088 72.2637L55.6285 18.3628C55.9046 17.8845 55.7407 17.2729 55.2624 16.9968L53.6436 16.0622L57.4475 9.47373ZM51.5432 8.2233L54.028 9.65791L51.1588 14.6276L48.674 13.193L51.5432 8.2233ZM14.7798 74.7686L14.815 66.5328L21.897 70.6216L14.7798 74.7686ZM23.5167 68.2436L16.0622 63.9397L17.4968 61.4549L24.9513 65.7588L23.5167 68.2436ZM26.3859 63.2739L18.9314 58.9701L20.366 56.4853L27.8205 60.7891L26.3859 63.2739ZM29.2551 58.3043L21.8007 54.0004L23.2353 51.5156L30.6898 55.8195L29.2551 58.3043ZM32.1244 53.3346L24.6699 49.0308L26.1045 46.5459L33.559 50.8498L32.1244 53.3346ZM34.9936 48.365L27.5391 44.0611L40.4507 21.6977L47.9052 26.0015L34.9936 48.365ZM49.3398 23.5167L41.8853 19.2128L44.7545 14.2432L52.209 18.547L49.3398 23.5167Z" fill="#00AA8A"/>
<path d="M27.3905 79.958C27.3905 79.4057 27.8382 78.958 28.3905 78.958H59.3867C59.9389 78.958 60.3867 79.4057 60.3867 79.958V80.8272C60.3867 81.3795 59.9389 81.8272 59.3867 81.8272H28.3905C27.8382 81.8272 27.3905 81.3795 27.3905 80.8272V79.958Z" fill="#00AA8A"/>
<path d="M21.6523 79.958C21.6523 79.4057 22.1 78.958 22.6523 78.958H23.5215C24.0738 78.958 24.5215 79.4057 24.5215 79.958V80.8272C24.5215 81.3795 24.0738 81.8272 23.5215 81.8272H22.6523C22.1 81.8272 21.6523 81.3795 21.6523 80.8272V79.958Z" fill="#00AA8A"/>
</svg>
