<svg width="72" height="81" viewBox="0 0 72 81" fill="none" xmlns="http://www.w3.org/2000/svg">
<path d="M4 1H54.6324C56.2892 1 57.6324 2.34315 57.6324 4V23.628V76.5101C57.6324 78.167 56.2892 79.5101 54.6324 79.5101H4C2.34315 79.5101 1 78.167 1 76.5101V4.00001C1 2.34315 2.34315 1 4 1Z" stroke="#00AA8A" stroke-width="2"/>
<path d="M7.00092 11.3785H35.0044" stroke="#00AA8A" stroke-width="2"/>
<path d="M7.00098 17.5039H35.0045" stroke="#00AA8A" stroke-width="2"/>
<path d="M7.00098 23.6289H35.0045" stroke="#00AA8A" stroke-width="2"/>
<path d="M7.00098 29.7539H35.0045" stroke="#00AA8A" stroke-width="2"/>
<path d="M7.00098 65.6328H24.5032" stroke="#00AA8A" stroke-width="2"/>
<path d="M7.00092 69.1373H12.2516" stroke="#00AA8A" stroke-width="2"/>
<path d="M13.1271 69.1373H18.3777" stroke="#00AA8A" stroke-width="2"/>
<path d="M19.2527 69.1373H24.5034" stroke="#00AA8A" stroke-width="2"/>
<path d="M44.6382 14.5117V1.51172H52.6382V14.5117L48.6382 10.3754L44.6382 14.5117Z" fill="#00AA8A"/>
<circle cx="57" cy="60" r="15" fill="#00AA8A"/>
<path d="M53 56L61 64" stroke="white" stroke-width="2" stroke-linecap="round"/>
<path d="M53 64L61 56" stroke="white" stroke-width="2" stroke-linecap="round"/>
</svg>
